<svg
  width="64"
  height="64"
  viewBox="0 0 32 32"
  fill="none"
  xmlns="http://www.w3.org/2000/svg"
  style="image-rendering: pixelated"
>
  <rect x="7" y="15" width="20" height="10" fill="#ff9f27" />
  <rect x="8" y="14" width="1" height="1" fill="black" />
  <rect x="9" y="13" width="2" height="1" fill="black" />
  <rect x="11" y="14" width="3" height="1" fill="black" />
  <rect x="14" y="13" width="2" height="1" fill="black" />
  <rect x="16" y="14" width="9" height="1" fill="black" />
  <rect x="25" y="15" width="1" height="1" fill="black" />
  <rect x="26" y="16" width="1" height="9" fill="black" />
  <rect x="7" y="25" width="19" height="1" fill="black" />
  <rect x="6" y="16" width="1" height="9" fill="black" />
  <rect x="7" y="15" width="1" height="1" fill="black" />
  <rect x="9" y="18" width="2" height="1" fill="black" />
  <rect x="13" y="18" width="2" height="1" fill="black" />
  <rect x="12" y="19" width="1" height="1" fill="black" />
  <rect x="3" y="17" width="3" height="1" fill="black" />
  <rect x="3" y="19" width="3" height="1" fill="black" />
  <rect x="11" y="15" width="3" height="1" fill="#e07e15" />
  <rect x="18" y="15" width="2" height="2" fill="#e07e15" />
  <rect x="22" y="15" width="2" height="2" fill="#e07e15" />
  <rect x="17" y="24" width="7" height="1" fill="black" />
  <rect x="16" y="22" width="1" height="2" fill="black" />
  <rect x="17" y="21" width="1" height="1" fill="black" />
  <rect x="24" y="21" width="1" height="3" fill="black" />
  <rect x="20" y="20" width="3" height="1" fill="black" />
  <rect x="23" y="20" width="1" height="1" fill="black" />
  <rect x="17" y="22" width="7" height="2" fill="#ff9f27" />
  <rect x="20" y="21" width="4" height="1" fill="#ff9f27" />
  <rect x="22" y="22" width="1" height="2" fill="#e07e15" />
  <rect x="19" y="22" width="1" height="2" fill="#e07e15" />
</svg>

